<svg width="1380" height="983" viewBox="0 0 1380 983" fill="none" xmlns="http://www.w3.org/2000/svg">
<g opacity="0.04">
<path d="M85.4899 509.891C69.965 514.432 57.6263 513.847 48.4736 508.136C39.3854 502.407 32.3742 491.108 27.4402 474.238L22.5815 457.626L56.2081 447.791L62.4227 469.039C63.5714 472.967 65.0551 475.888 66.8738 477.802C68.738 479.633 71.1518 480.115 74.1151 479.249C77.2072 478.344 79.0693 476.821 79.7016 474.679C80.3982 472.518 80.1439 469.377 78.9386 465.257C77.4132 460.041 75.6267 455.846 73.5791 452.67C71.5126 449.431 68.7296 446.61 65.2301 444.209C61.7762 441.724 57.1731 439.017 51.4209 436.086L31.9164 426.064C17.3693 418.647 8.07135 408.016 4.02243 394.173C-0.2148 379.686 -0.0947455 367.664 4.3826 358.106C8.92436 348.53 17.5727 341.877 30.3276 338.146C45.9169 333.587 58.1794 334.508 67.115 340.911C76.115 347.296 83.0915 358.955 88.0444 375.888L53.4515 386.006L50.0335 374.32C49.3556 372.002 48.1519 370.397 46.4224 369.505C44.7574 368.594 42.7976 368.468 40.5429 369.128C37.8373 369.919 36.0663 371.276 35.2299 373.198C34.4391 375.037 34.3921 377.147 35.0889 379.53C35.7857 381.912 37.1832 384.299 39.2813 386.691C41.3795 389.083 44.8562 391.526 49.7115 394.02L74.8354 407.116C79.8572 409.701 84.6228 412.606 89.1323 415.83C93.6229 418.99 97.6764 423.046 101.293 427.999C104.891 432.888 107.848 439.293 110.164 447.212C114.834 463.18 115.534 476.57 112.263 487.382C109.037 498.111 100.113 505.614 85.4899 509.891Z" fill="#2F5DD3"/>
<path d="M176.127 483.381C163.823 486.98 152.782 486.05 143.004 480.593C133.29 475.116 126.419 465.488 122.389 451.71L99.4509 373.286C94.6299 356.803 94.1919 343.232 98.1371 332.572C102.147 321.893 111.527 314.397 126.279 310.082C134.331 307.727 141.915 307.117 149.03 308.251C156.209 309.366 162.469 312.358 167.809 317.227C173.13 322.031 177.1 328.908 179.717 337.857L188.305 367.218L154.485 377.11L147.14 351.999C145.653 346.912 144.01 343.688 142.213 342.326C140.398 340.9 138.137 340.583 135.432 341.374C132.275 342.298 130.488 344.078 130.071 346.717C129.635 349.29 129.973 352.477 131.084 356.276L155.97 441.363C157.345 446.064 158.991 449.182 160.909 450.718C162.891 452.235 165.171 452.616 167.748 451.863C170.646 451.015 172.327 449.23 172.79 446.509C173.317 443.768 173.025 440.499 171.914 436.7L162.959 406.084L197.166 396.079L206.572 428.241C210.941 443.178 210.346 455.13 204.786 464.095C199.208 472.996 189.655 479.424 176.127 483.381Z" fill="#2F5DD3"/>
<path d="M228.434 466.405L178.717 296.423L211.57 286.813L261.287 456.796L228.434 466.405Z" fill="#2F5DD3"/>
<path d="M274.815 452.839L225.098 282.857L293.124 262.96L302.729 295.798L269.296 305.576L278.985 338.704L311.065 329.321L320.415 361.289L288.335 370.672L299.719 409.594L335.375 399.165L345.064 432.292L274.815 452.839Z" fill="#2F5DD3"/>
<path d="M356.369 428.986L306.652 259.004L341.632 248.773L381.099 325.612L357.285 244.194L390.139 234.585L439.856 404.567L406.616 414.289L364.751 334.273L389.609 419.264L356.369 428.986Z" fill="#2F5DD3"/>
<path d="M494.999 390.116C482.695 393.715 471.654 392.786 461.876 387.328C452.163 381.851 445.291 372.224 441.261 358.445L418.323 280.021C413.502 263.538 413.064 249.967 417.009 239.307C421.019 228.629 430.4 221.132 445.151 216.817C453.204 214.462 460.787 213.852 467.902 214.986C475.082 216.101 481.341 219.093 486.681 223.962C492.002 228.766 495.972 235.643 498.59 244.593L507.177 273.953L473.357 283.845L466.013 258.734C464.525 253.647 462.883 250.423 461.086 249.062C459.27 247.636 457.009 247.318 454.304 248.11C451.147 249.033 449.361 250.814 448.943 253.452C448.507 256.026 448.845 259.212 449.956 263.011L474.843 348.099C476.217 352.799 477.864 355.917 479.781 357.453C481.764 358.97 484.043 359.352 486.62 358.598C489.519 357.75 491.199 355.966 491.662 353.244C492.189 350.504 491.897 347.234 490.786 343.435L481.832 312.819L516.038 302.814L525.445 334.976C529.814 349.914 529.218 361.865 523.659 370.83C518.08 379.731 508.527 386.16 494.999 390.116Z" fill="#2F5DD3"/>
<path d="M548.852 372.688L499.135 202.706L567.161 182.809L576.766 215.647L543.333 225.425L553.022 258.552L585.102 249.169L594.452 281.138L562.372 290.521L573.756 329.443L609.412 319.014L619.101 352.141L548.852 372.688Z" fill="#2F5DD3"/>
<path d="M708.547 327.657C693.022 332.198 680.683 331.613 671.531 325.903C662.443 320.173 655.431 308.874 650.497 292.005L645.639 275.393L679.265 265.558L685.48 286.805C686.629 290.733 688.112 293.654 689.931 295.568C691.795 297.4 694.209 297.882 697.172 297.015C700.264 296.111 702.126 294.587 702.759 292.446C703.455 290.285 703.201 287.144 701.996 283.023C700.47 277.808 698.684 273.612 696.636 270.437C694.57 267.197 691.787 264.376 688.287 261.975C684.833 259.491 680.23 256.783 674.478 253.852L654.974 243.831C640.426 236.413 631.128 225.782 627.08 211.939C622.842 197.452 622.962 185.43 627.44 175.873C631.982 166.297 640.63 159.643 653.385 155.913C668.974 151.353 681.237 152.275 690.172 158.678C699.172 165.062 706.149 176.721 711.102 193.655L676.509 203.773L673.091 192.086C672.413 189.768 671.209 188.163 669.48 187.271C667.815 186.36 665.855 186.235 663.6 186.894C660.894 187.685 659.123 189.042 658.287 190.964C657.496 192.803 657.449 194.914 658.146 197.296C658.843 199.678 660.24 202.065 662.338 204.457C664.437 206.849 667.913 209.292 672.769 211.786L697.893 224.882C702.914 227.467 707.68 230.372 712.189 233.596C716.68 236.756 720.734 240.813 724.35 245.766C727.948 250.655 730.905 257.059 733.221 264.979C737.892 280.947 738.591 294.337 735.32 305.149C732.094 315.877 723.17 323.38 708.547 327.657Z" fill="#242A38"/>
<path d="M799.184 301.147C786.88 304.746 775.839 303.817 766.061 298.359C756.348 292.883 749.476 283.255 745.446 269.476L722.508 191.052C717.687 174.569 717.249 160.998 721.194 150.338C725.204 139.66 734.584 132.163 749.336 127.849C757.389 125.493 764.972 124.883 772.087 126.017C779.266 127.132 785.526 130.124 790.866 134.993C796.187 139.797 800.157 146.674 802.774 155.624L811.362 184.984L777.542 194.876L770.197 169.765C768.71 164.679 767.067 161.454 765.271 160.093C763.455 158.667 761.194 158.349 758.489 159.141C755.332 160.064 753.545 161.845 753.128 164.483C752.692 167.057 753.03 170.243 754.141 174.042L779.028 259.13C780.402 263.83 782.049 266.948 783.966 268.484C785.948 270.001 788.228 270.383 790.805 269.629C793.704 268.781 795.384 266.997 795.847 264.275C796.374 261.535 796.082 258.265 794.971 254.466L786.016 223.85L820.223 213.846L829.629 246.007C833.999 260.945 833.403 272.896 827.844 281.861C822.265 290.762 812.712 297.191 799.184 301.147Z" fill="#242A38"/>
<path d="M851.491 284.171L801.774 114.189L834.628 104.58L884.345 274.562L851.491 284.171Z" fill="#242A38"/>
<path d="M897.872 270.605L848.156 100.623L916.182 80.7267L925.786 113.564L892.353 123.343L902.042 156.47L934.122 147.087L943.473 179.055L911.392 188.438L922.776 227.36L958.432 216.932L968.121 250.059L897.872 270.605Z" fill="#242A38"/>
<path d="M979.426 246.752L929.71 76.77L964.689 66.5391L1004.16 143.378L980.343 61.9607L1013.2 52.3516L1062.91 222.334L1029.67 232.056L987.808 152.039L1012.67 237.03L979.426 246.752Z" fill="#242A38"/>
<path d="M1118.06 207.883C1105.75 211.481 1094.71 210.552 1084.93 205.094C1075.22 199.618 1068.35 189.99 1064.32 176.211L1041.38 97.7877C1036.56 81.3046 1036.12 67.7332 1040.07 57.0736C1044.08 46.3951 1053.46 38.8985 1068.21 34.5839C1076.26 32.2287 1083.84 31.6182 1090.96 32.7524C1098.14 33.8678 1104.4 36.8597 1109.74 41.7282C1115.06 46.5323 1119.03 53.4093 1121.65 62.3591L1130.23 91.7197L1096.41 101.611L1089.07 76.5004C1087.58 71.4138 1085.94 68.1897 1084.14 66.828C1082.33 65.402 1080.07 65.0847 1077.36 65.876C1074.2 66.7993 1072.42 68.58 1072 71.2182C1071.56 73.7921 1071.9 76.9784 1073.01 80.7773L1097.9 165.865C1099.27 170.565 1100.92 173.683 1102.84 175.219C1104.82 176.736 1107.1 177.118 1109.68 176.364C1112.58 175.517 1114.26 173.732 1114.72 171.01C1115.25 168.27 1114.95 165.001 1113.84 161.202L1104.89 130.586L1139.1 120.581L1148.5 152.742C1152.87 167.68 1152.28 179.632 1146.72 188.597C1141.14 197.497 1131.58 203.926 1118.06 207.883Z" fill="#242A38"/>
<path d="M1171.91 190.454L1122.19 20.472L1190.22 0.575517L1199.82 33.413L1166.39 43.1916L1176.08 76.3188L1208.16 66.9358L1217.51 98.9041L1185.43 108.287L1196.81 147.209L1232.47 136.78L1242.16 169.908L1171.91 190.454Z" fill="#242A38"/>
<path d="M154.19 744.775C138.665 749.316 126.326 748.731 117.173 743.021C108.085 737.291 101.074 725.992 96.1399 709.123L91.2812 692.511L124.908 682.676L131.122 703.923C132.271 707.851 133.755 710.772 135.573 712.686C137.438 714.518 139.851 715 142.815 714.133C145.907 713.229 147.769 711.706 148.401 709.564C149.098 707.403 148.844 704.262 147.638 700.141C146.113 694.926 144.326 690.73 142.279 687.555C140.212 684.315 137.429 681.495 133.93 679.093C130.476 676.609 125.873 673.901 120.121 670.97L100.616 660.949C86.069 653.531 76.771 642.9 72.7221 629.057C68.4849 614.57 68.605 602.548 73.0823 592.991C77.6241 583.415 86.2724 576.761 99.0273 573.031C114.617 568.471 126.879 569.393 135.815 575.796C144.815 582.18 151.791 593.839 156.744 610.773L122.151 620.891L118.733 609.204C118.055 606.886 116.852 605.281 115.122 604.389C113.457 603.478 111.497 603.353 109.243 604.012C106.537 604.803 104.766 606.16 103.93 608.082C103.139 609.921 103.092 612.032 103.789 614.414C104.485 616.796 105.883 619.184 107.981 621.575C110.079 623.967 113.556 626.41 118.411 628.904L143.535 642C148.557 644.585 153.323 647.49 157.832 650.714C162.323 653.874 166.376 657.931 169.993 662.884C173.59 667.773 176.547 674.177 178.864 682.097C183.534 698.065 184.234 711.455 180.963 722.267C177.737 732.995 168.813 740.498 154.19 744.775Z" fill="#242A38"/>
<path d="M244.827 718.265C232.523 721.864 221.482 720.935 211.704 715.477C201.99 710.001 195.118 700.373 191.088 686.594L168.151 608.17C163.33 591.687 162.892 578.116 166.837 567.456C170.846 556.778 180.227 549.281 194.979 544.967C203.031 542.611 210.615 542.001 217.73 543.135C224.909 544.251 231.169 547.242 236.509 552.111C241.83 556.915 245.799 563.792 248.417 572.742L257.004 602.102L223.185 611.994L215.84 586.883C214.352 581.797 212.71 578.572 210.913 577.211C209.097 575.785 206.837 575.467 204.131 576.259C200.975 577.182 199.188 578.963 198.771 581.601C198.335 584.175 198.672 587.361 199.783 591.16L224.67 676.248C226.045 680.948 227.691 684.066 229.609 685.602C231.591 687.119 233.871 687.501 236.447 686.747C239.346 685.899 241.027 684.115 241.49 681.393C242.017 678.653 241.725 675.383 240.614 671.584L231.659 640.968L265.865 630.964L275.272 663.125C279.641 678.063 279.046 690.014 273.486 698.979C267.908 707.88 258.355 714.309 244.827 718.265Z" fill="#242A38"/>
<path d="M297.134 701.289L247.417 531.307L280.27 521.698L329.987 691.68L297.134 701.289Z" fill="#242A38"/>
<path d="M343.515 687.723L293.798 517.741L361.824 497.845L371.429 530.682L337.995 540.461L347.684 573.588L379.765 564.205L389.115 596.173L357.035 605.556L368.419 644.478L404.074 634.05L413.764 667.177L343.515 687.723Z" fill="#242A38"/>
<path d="M425.069 663.87L375.352 493.888L410.331 483.657L449.798 560.496L425.985 479.079L458.839 469.47L508.556 639.452L475.316 649.174L433.451 569.157L458.309 654.148L425.069 663.87Z" fill="#242A38"/>
<path d="M563.699 625.001C551.395 628.599 540.354 627.67 530.576 622.212C520.862 616.736 513.991 607.108 509.96 593.329L487.023 514.906C482.202 498.423 481.764 484.851 485.709 474.192C489.719 463.513 499.099 456.017 513.851 451.702C521.903 449.347 529.487 448.736 536.602 449.87C543.781 450.986 550.041 453.978 555.381 458.846C560.702 463.65 564.672 470.527 567.289 479.477L575.877 508.838L542.057 518.729L534.712 493.618C533.225 488.532 531.582 485.308 529.785 483.946C527.97 482.52 525.709 482.203 523.004 482.994C519.847 483.917 518.06 485.698 517.643 488.336C517.207 490.91 517.545 494.096 518.656 497.895L543.542 582.983C544.917 587.683 546.563 590.801 548.481 592.337C550.463 593.854 552.743 594.236 555.32 593.482C558.218 592.635 559.899 590.85 560.362 588.128C560.889 585.388 560.597 582.119 559.486 578.32L550.531 547.704L584.738 537.699L594.144 569.86C598.513 584.798 597.918 596.75 592.358 605.715C586.78 614.615 577.227 621.044 563.699 625.001Z" fill="#242A38"/>
<path d="M617.552 607.572L567.835 437.59L635.861 417.694L645.466 450.531L612.032 460.31L621.721 493.437L653.802 484.054L663.152 516.022L631.072 525.405L642.456 564.327L678.111 553.898L687.8 587.026L617.552 607.572Z" fill="#242A38"/>
<path d="M777.247 562.542C761.722 567.082 749.383 566.498 740.23 560.787C731.142 555.058 724.131 543.758 719.197 526.889L714.338 510.277L747.965 500.442L754.18 521.69C755.328 525.617 756.812 528.538 758.631 530.453C760.495 532.284 762.909 532.766 765.872 531.899C768.964 530.995 770.826 529.472 771.458 527.33C772.155 525.169 771.901 522.028 770.695 517.908C769.17 512.692 767.384 508.497 765.336 505.321C763.269 502.081 760.486 499.261 756.987 496.86C753.533 494.375 748.93 491.667 743.178 488.737L723.673 478.715C709.126 471.297 699.828 460.667 695.779 446.824C691.542 432.336 691.662 420.314 696.139 410.757C700.681 401.181 709.33 394.528 722.084 390.797C737.674 386.238 749.936 387.159 758.872 393.562C767.872 399.946 774.848 411.605 779.801 428.539L745.208 438.657L741.79 426.971C741.112 424.653 739.909 423.048 738.179 422.156C736.514 421.245 734.554 421.119 732.3 421.778C729.594 422.57 727.823 423.927 726.987 425.849C726.196 427.688 726.149 429.798 726.846 432.181C727.543 434.563 728.94 436.95 731.038 439.342C733.136 441.734 736.613 444.176 741.468 446.671L766.592 459.767C771.614 462.352 776.38 465.256 780.889 468.481C785.38 471.641 789.433 475.697 793.05 480.65C796.648 485.539 799.605 491.943 801.921 499.863C806.591 515.831 807.291 529.221 804.02 540.033C800.794 550.762 791.87 558.265 777.247 562.542Z" fill="#242A38"/>
<path d="M867.884 536.032C855.58 539.631 844.539 538.701 834.761 533.243C825.047 527.767 818.175 518.139 814.145 504.36L791.208 425.937C786.387 409.454 785.949 395.882 789.894 385.223C793.903 374.544 803.284 367.048 818.036 362.733C826.088 360.378 833.672 359.767 840.787 360.902C847.966 362.017 854.226 365.009 859.566 369.877C864.887 374.681 868.856 381.558 871.474 390.508L880.062 419.869L846.242 429.761L838.897 404.65C837.409 399.563 835.767 396.339 833.97 394.977C832.155 393.551 829.894 393.234 827.188 394.025C824.032 394.948 822.245 396.729 821.828 399.367C821.392 401.941 821.729 405.128 822.841 408.926L847.727 494.014C849.102 498.714 850.748 501.832 852.666 503.368C854.648 504.886 856.928 505.267 859.504 504.514C862.403 503.666 864.084 501.881 864.547 499.16C865.074 496.419 864.782 493.15 863.671 489.351L854.716 458.735L888.922 448.73L898.329 480.891C902.698 495.829 902.103 507.781 896.543 516.746C890.965 525.646 881.412 532.075 867.884 536.032Z" fill="#242A38"/>
<path d="M920.191 519.055L870.474 349.073L903.327 339.464L953.044 509.446L920.191 519.055Z" fill="#242A38"/>
<path d="M966.572 505.49L916.855 335.508L984.881 315.611L994.486 348.449L961.052 358.227L970.742 391.354L1002.82 381.971L1012.17 413.94L980.092 423.323L991.476 462.245L1027.13 451.816L1036.82 484.943L966.572 505.49Z" fill="#242A38"/>
<path d="M1048.13 481.637L998.409 311.654L1033.39 301.424L1072.86 378.263L1049.04 296.845L1081.9 287.236L1131.61 457.218L1098.37 466.94L1056.51 386.923L1081.37 471.914L1048.13 481.637Z" fill="#242A38"/>
<path d="M1186.76 442.767C1174.45 446.366 1163.41 445.436 1153.63 439.979C1143.92 434.502 1137.05 424.875 1133.02 411.096L1110.08 332.672C1105.26 316.189 1104.82 302.618 1108.77 291.958C1112.78 281.28 1122.16 273.783 1136.91 269.468C1144.96 267.113 1152.54 266.503 1159.66 267.637C1166.84 268.752 1173.1 271.744 1178.44 276.613C1183.76 281.417 1187.73 288.294 1190.35 297.244L1198.93 326.604L1165.11 336.496L1157.77 311.385C1156.28 306.298 1154.64 303.074 1152.84 301.712C1151.03 300.286 1148.77 299.969 1146.06 300.76C1142.9 301.684 1141.12 303.464 1140.7 306.103C1140.26 308.677 1140.6 311.863 1141.71 315.662L1166.6 400.749C1167.97 405.45 1169.62 408.568 1171.54 410.104C1173.52 411.621 1175.8 412.003 1178.38 411.249C1181.28 410.401 1182.96 408.616 1183.42 405.895C1183.95 403.155 1183.65 399.885 1182.54 396.086L1173.59 365.47L1207.79 355.465L1217.2 387.627C1221.57 402.564 1220.98 414.516 1215.42 423.481C1209.84 432.382 1200.28 438.81 1186.76 442.767Z" fill="#242A38"/>
<path d="M1240.61 425.339L1190.89 255.356L1258.92 235.46L1268.52 268.297L1235.09 278.076L1244.78 311.203L1276.86 301.82L1286.21 333.789L1254.13 343.172L1265.51 382.094L1301.17 371.665L1310.86 404.792L1240.61 425.339Z" fill="#242A38"/>
<path d="M222.889 979.66C207.364 984.2 195.026 983.616 185.873 977.905C176.785 972.176 169.774 960.877 164.84 944.007L159.981 927.395L193.607 917.56L199.822 938.808C200.971 942.735 202.455 945.656 204.273 947.571C206.137 949.402 208.551 949.884 211.514 949.018C214.607 948.113 216.469 946.59 217.101 944.448C217.798 942.287 217.543 939.146 216.338 935.026C214.813 929.81 213.026 925.615 210.978 922.439C208.912 919.2 206.129 916.379 202.629 913.978C199.176 911.493 194.572 908.785 188.82 905.855L169.316 895.833C154.769 888.415 145.471 877.785 141.422 863.942C137.185 849.455 137.305 837.432 141.782 827.875C146.324 818.299 154.972 811.646 167.727 807.915C183.316 803.356 195.579 804.277 204.514 810.68C213.514 817.064 220.491 828.723 225.444 845.657L190.851 855.775L187.433 844.089C186.755 841.771 185.551 840.166 183.822 839.274C182.157 838.363 180.197 838.237 177.942 838.897C175.237 839.688 173.466 841.045 172.629 842.967C171.839 844.806 171.792 846.916 172.488 849.299C173.185 851.681 174.583 854.068 176.681 856.46C178.779 858.852 182.256 861.295 187.111 863.789L212.235 876.885C217.257 879.47 222.022 882.374 226.532 885.599C231.022 888.759 235.076 892.815 238.692 897.768C242.29 902.657 245.247 909.061 247.563 916.981C252.234 932.949 252.933 946.339 249.662 957.151C246.437 967.88 237.512 975.383 222.889 979.66Z" fill="#242A38"/>
<path d="M313.526 953.15C301.222 956.749 290.181 955.819 280.403 950.361C270.69 944.885 263.818 935.257 259.788 921.478L236.85 843.055C232.029 826.572 231.591 813 235.536 802.341C239.546 791.662 248.927 784.166 263.679 779.851C271.731 777.496 279.314 776.885 286.429 778.02C293.609 779.135 299.868 782.127 305.208 786.995C310.53 791.799 314.499 798.676 317.117 807.626L325.704 836.987L291.884 846.879L284.54 821.768C283.052 816.681 281.41 813.457 279.613 812.095C277.797 810.669 275.537 810.352 272.831 811.143C269.674 812.066 267.888 813.847 267.47 816.485C267.034 819.059 267.372 822.246 268.483 826.044L293.37 911.132C294.745 915.832 296.391 918.95 298.309 920.486C300.291 922.004 302.57 922.385 305.147 921.632C308.046 920.784 309.727 918.999 310.189 916.278C310.716 913.537 310.425 910.268 309.313 906.469L300.359 875.853L334.565 865.848L343.972 898.009C348.341 912.947 347.745 924.899 342.186 933.864C336.607 942.764 327.054 949.193 313.526 953.15Z" fill="#242A38"/>
<path d="M365.833 936.174L316.116 766.191L348.97 756.582L398.687 926.564L365.833 936.174Z" fill="#242A38"/>
<path d="M412.215 922.608L362.498 752.626L430.524 732.729L440.128 765.567L406.695 775.345L416.384 808.472L448.465 799.089L457.815 831.058L425.734 840.441L437.118 879.363L472.774 868.934L482.463 902.061L412.215 922.608Z" fill="#242A38"/>
<path d="M493.769 898.755L444.052 728.772L479.031 718.542L518.498 795.381L494.685 713.963L527.538 704.354L577.255 874.336L544.015 884.058L502.15 804.041L527.009 889.032L493.769 898.755Z" fill="#242A38"/>
<path d="M632.399 859.885C620.095 863.484 609.054 862.554 599.276 857.097C589.562 851.62 582.69 841.993 578.66 828.214L555.723 749.79C550.902 733.307 550.464 719.736 554.409 709.076C558.418 698.398 567.799 690.901 582.551 686.586C590.603 684.231 598.187 683.621 605.302 684.755C612.481 685.87 618.741 688.862 624.081 693.731C629.402 698.535 633.371 705.412 635.989 714.362L644.576 743.722L610.757 753.614L603.412 728.503C601.924 723.416 600.282 720.192 598.485 718.831C596.669 717.404 594.409 717.087 591.703 717.878C588.547 718.802 586.76 720.582 586.343 723.221C585.907 725.795 586.244 728.981 587.355 732.78L612.242 817.867C613.617 822.568 615.263 825.686 617.181 827.222C619.163 828.739 621.443 829.121 624.019 828.367C626.918 827.519 628.599 825.734 629.062 823.013C629.589 820.273 629.297 817.003 628.186 813.204L619.231 782.588L653.437 772.583L662.844 804.745C667.213 819.683 666.618 831.634 661.058 840.599C655.48 849.5 645.927 855.928 632.399 859.885Z" fill="#242A38"/>
<path d="M686.252 842.457L636.535 672.474L704.561 652.578L714.165 685.415L680.732 695.194L690.421 728.321L722.502 718.938L731.852 750.907L699.771 760.29L711.155 799.212L746.811 788.783L756.5 821.91L686.252 842.457Z" fill="#242A38"/>
<path d="M845.946 797.426C830.422 801.967 818.083 801.382 808.93 795.672C799.842 789.942 792.831 778.643 787.897 761.773L783.038 745.162L816.665 735.326L822.879 756.574C824.028 760.502 825.512 763.423 827.33 765.337C829.195 767.168 831.608 767.651 834.572 766.784C837.664 765.88 839.526 764.356 840.158 762.214C840.855 760.054 840.6 756.913 839.395 752.792C837.87 747.577 836.083 743.381 834.036 740.206C831.969 736.966 829.186 734.145 825.687 731.744C822.233 729.259 817.63 726.552 811.877 723.621L792.373 713.599C777.826 706.182 768.528 695.551 764.479 681.708C760.242 667.221 760.362 655.199 764.839 645.642C769.381 636.066 778.029 629.412 790.784 625.682C806.373 621.122 818.636 622.044 827.572 628.447C836.572 634.831 843.548 646.49 848.501 663.424L813.908 673.541L810.49 661.855C809.812 659.537 808.608 657.932 806.879 657.04C805.214 656.129 803.254 656.003 800.999 656.663C798.294 657.454 796.523 658.811 795.686 660.733C794.896 662.572 794.849 664.683 795.545 667.065C796.242 669.447 797.64 671.834 799.738 674.226C801.836 676.618 805.313 679.061 810.168 681.555L835.292 694.651C840.314 697.236 845.079 700.141 849.589 703.365C854.079 706.525 858.133 710.581 861.75 715.535C865.347 720.424 868.304 726.828 870.621 734.747C875.291 750.715 875.991 764.105 872.719 774.917C869.494 785.646 860.569 793.149 845.946 797.426Z" fill="#2F5DD3"/>
<path d="M936.583 770.916C924.28 774.515 913.239 773.585 903.461 768.128C893.747 762.651 886.875 753.024 882.845 739.245L859.907 660.821C855.086 644.338 854.648 630.767 858.594 620.107C862.603 609.429 871.984 601.932 886.736 597.617C894.788 595.262 902.372 594.652 909.487 595.786C916.666 596.901 922.925 599.893 928.265 604.762C933.587 609.566 937.556 616.443 940.174 625.393L948.761 654.753L914.941 664.645L907.597 639.534C906.109 634.447 904.467 631.223 902.67 629.862C900.854 628.436 898.594 628.118 895.888 628.91C892.732 629.833 890.945 631.614 890.528 634.252C890.092 636.826 890.429 640.012 891.54 643.811L916.427 728.899C917.802 733.599 919.448 736.717 921.366 738.253C923.348 739.77 925.627 740.152 928.204 739.398C931.103 738.55 932.784 736.765 933.246 734.044C933.774 731.304 933.482 728.034 932.371 724.235L923.416 693.619L957.622 683.614L967.029 715.776C971.398 730.714 970.803 742.665 965.243 751.63C959.665 760.531 950.111 766.96 936.583 770.916Z" fill="#2F5DD3"/>
<path d="M988.89 753.94L939.174 583.958L972.027 574.349L1021.74 744.331L988.89 753.94Z" fill="#2F5DD3"/>
<path d="M1035.27 740.374L985.555 570.392L1053.58 550.495L1063.19 583.333L1029.75 593.112L1039.44 626.239L1071.52 616.856L1080.87 648.824L1048.79 658.207L1060.18 697.129L1095.83 686.7L1105.52 719.828L1035.27 740.374Z" fill="#2F5DD3"/>
<path d="M1116.83 716.521L1067.11 546.539L1102.09 536.308L1141.56 613.147L1117.74 531.73L1150.6 522.12L1200.31 692.103L1167.07 701.825L1125.21 621.808L1150.07 706.799L1116.83 716.521Z" fill="#2F5DD3"/>
<path d="M1255.46 677.652C1243.15 681.25 1232.11 680.321 1222.33 674.863C1212.62 669.387 1205.75 659.759 1201.72 645.98L1178.78 567.557C1173.96 551.073 1173.52 537.502 1177.47 526.842C1181.48 516.164 1190.86 508.667 1205.61 504.353C1213.66 501.998 1221.24 501.387 1228.36 502.521C1235.54 503.637 1241.8 506.629 1247.14 511.497C1252.46 516.301 1256.43 523.178 1259.05 532.128L1267.63 561.489L1233.81 571.38L1226.47 546.269C1224.98 541.183 1223.34 537.959 1221.54 536.597C1219.73 535.171 1217.47 534.854 1214.76 535.645C1211.6 536.568 1209.82 538.349 1209.4 540.987C1208.96 543.561 1209.3 546.747 1210.41 550.546L1235.3 635.634C1236.67 640.334 1238.32 643.452 1240.24 644.988C1242.22 646.505 1244.5 646.887 1247.08 646.133C1249.98 645.285 1251.66 643.501 1252.12 640.779C1252.65 638.039 1252.35 634.769 1251.24 630.971L1242.29 600.354L1276.49 590.35L1285.9 622.511C1290.27 637.449 1289.67 649.4 1284.12 658.365C1278.54 667.266 1268.98 673.695 1255.46 677.652Z" fill="#2F5DD3"/>
<path d="M1309.31 660.223L1259.59 490.241L1327.62 470.344L1337.22 503.182L1303.79 512.96L1313.48 546.088L1345.56 536.705L1354.91 568.673L1322.83 578.056L1334.21 616.978L1369.87 606.549L1379.56 639.676L1309.31 660.223Z" fill="#2F5DD3"/>
</g>
</svg>
